<?xml version="1.0" encoding="UTF-8" standalone="no"?>
<svg width="435px" height="435px" viewBox="0 0 435 435" version="1.1" xmlns="http://www.w3.org/2000/svg" xmlns:xlink="http://www.w3.org/1999/xlink">
    <!-- Generator: Sketch 39.1 (31720) - http://www.bohemiancoding.com/sketch -->
    <title>Artboard</title>
    <desc>Created with Sketch.</desc>
    <defs>
        <linearGradient x1="49.9979705%" y1="-8.22412634%" x2="50%" y2="109.624916%" id="linearGradient-1">
            <stop stop-color="#3023AE" offset="0%"></stop>
            <stop stop-color="#864DC5" offset="56.3838355%"></stop>
            <stop stop-color="#C96DD8" offset="100%"></stop>
        </linearGradient>
    </defs>
    <g id="Page-1" stroke="none" stroke-width="1" fill="none" fill-rule="evenodd">
        <g id="Artboard" fill="url(#linearGradient-1)">
            <path d="M11,186.904706 C11,181.250393 15.6302298,176.666667 21.3308906,176.666667 L311.16911,176.666667 C316.874703,176.666667 321.5,181.125554 321.5,186.904706 L321.5,228.428627 C321.5,234.082941 316.86977,238.666667 311.16911,238.666667 L21.3308906,238.666667 C15.6252972,238.666667 11,234.20778 11,228.428627 L11,186.904706 L11,186.904706 Z M31.7,197.333333 L300.8,197.333333 L300.8,218 L31.7,218 L31.7,197.333333 Z M11,269.571373 C11,263.917059 15.6302298,259.333333 21.3308906,259.333333 L311.16911,259.333333 C316.874703,259.333333 321.5,263.79222 321.5,269.571373 L321.5,311.095294 C321.5,316.749607 316.86977,321.333333 311.16911,321.333333 L21.3308906,321.333333 C15.6252972,321.333333 11,316.874446 11,311.095294 L11,269.571373 Z M31.7,280 L300.8,280 L300.8,300.666667 L31.7,300.666667 L31.7,280 Z M11,52.476078 C11,41.1674525 20.4248255,32 31.5303244,32 L404.469676,32 C415.80826,32 425,41.3201537 425,52.476078 L425,135.523922 C425,146.832548 415.575174,156 404.469676,156 L31.5303244,156 C20.1917394,156 11,146.679846 11,135.523922 L11,52.476078 Z M31.7,52.6666667 L300.8,52.6666667 L300.8,135.333333 L31.7,135.333333 L31.7,52.6666667 Z M363.326735,83.6666667 L384.221,106.04126 L342.2,106.04126 L363.326735,83.6666667 Z M321.5,52.6666667 L404.3,52.6666667 L404.3,135.333333 L321.5,135.333333 L321.5,52.6666667 Z M11,352.238039 C11,346.583726 15.6302298,342 21.3308906,342 L311.16911,342 C316.874703,342 321.5,346.458887 321.5,352.238039 L321.5,393.761961 C321.5,399.416274 316.86977,404 311.16911,404 L21.3308906,404 C15.6252972,404 11,399.541113 11,393.761961 L11,352.238039 Z M31.7,362.666667 L300.8,362.666667 L300.8,383.333333 L31.7,383.333333 L31.7,362.666667 Z" id="Combined-Shape"></path>
        </g>
    </g>
</svg>